<svg width="28" height="25" viewBox="0 0 28 25" fill="none" xmlns="http://www.w3.org/2000/svg">
<path d="M2.69219 24.8139C2.09732 24.8139 1.57681 24.6081 1.13066 24.1965C0.684503 23.7849 0.461426 23.3046 0.461426 22.7558V15.5523H2.69219V22.7558H24.9999V2.10581H2.69219V9.3779H0.461426V2.10581C0.461426 1.55697 0.684503 1.07674 1.13066 0.66511C1.57681 0.253482 2.09732 0.0476685 2.69219 0.0476685H24.9999C25.5948 0.0476685 26.1153 0.253482 26.5614 0.66511C27.0076 1.07674 27.2307 1.55697 27.2307 2.10581V22.7558C27.2307 23.3046 27.0076 23.7849 26.5614 24.1965C26.1153 24.6081 25.5948 24.8139 24.9999 24.8139H2.69219ZM11.355 19.0855L9.68194 17.5419L14.0691 13.4942H0.461426V11.436H14.0691L9.68194 7.38837L11.355 5.84476L18.5307 12.4651L11.355 19.0855Z" fill="#D9D9D9"/>
</svg>
