<svg width="82" height="68" viewBox="0 0 82 68" fill="none" xmlns="http://www.w3.org/2000/svg">
<path d="M42.2518 0.0792189C39.8003 0.422798 37.5892 2.45679 36.74 5.1642C36.3715 6.3736 36.3715 8.8886 36.756 10.098C37.4129 12.1595 38.9832 13.9461 40.7937 14.7157C41.6269 15.0593 41.9153 15.1143 43.1811 15.1143C44.511 15.1143 44.7033 15.0868 45.6326 14.647C50.4073 12.4206 51.3366 5.31537 47.331 1.71466C46.8503 1.28862 46.1293 0.780121 45.6967 0.573974C45.0397 0.271624 44.6712 0.175422 43.3413 0.0105028C43.1651 -0.016983 42.6844 0.0105028 42.2518 0.0792189ZM44.3508 3.07523C44.9276 3.33635 45.7768 4.31212 46.1453 5.12297C46.5939 6.11248 46.7542 7.99529 46.4657 9.12223C46.0652 10.7714 44.7673 12.2144 43.5336 12.3931C42.7004 12.5031 42.2037 12.3519 41.4346 11.7472C39.7362 10.4003 39.1274 7.583 40.0567 5.32911C40.9379 3.17143 42.6363 2.29187 44.3508 3.07523Z" fill="white"/>
<path d="M60.3252 0.0792198C57.8257 0.354084 55.5665 2.44305 54.6853 5.28788C54.3328 6.4698 54.3328 8.75117 54.6853 9.96057C55.3422 12.1182 56.8804 13.9323 58.755 14.7157C59.5722 15.0593 59.8606 15.1143 61.1264 15.1143C62.3922 15.1143 62.6806 15.0593 63.4977 14.7157C65.3083 13.9186 66.8945 12.0495 67.5354 9.89185C67.8559 8.83362 67.8399 6.45605 67.5194 5.28788C67.1669 3.99603 66.2376 2.47053 65.2923 1.64594C63.9143 0.422799 62.1679 -0.126927 60.3252 0.0792198ZM62.4883 3.19892C63.7861 4.02351 64.5713 5.68644 64.5713 7.61048C64.5713 10.3041 63.0491 12.4343 61.1264 12.4343C58.9313 12.4343 57.1207 9.34212 57.6815 6.566C58.2904 3.52876 60.5335 1.96204 62.4883 3.19892Z" fill="white"/>
<path d="M25.5401 11.6235C24.3704 12.0083 23.4892 12.7092 22.8803 13.7674C22.4477 14.5233 22.3516 14.8531 22.3035 15.9114C22.2234 17.3819 22.4317 18.3302 23.1527 19.6495C24.1942 21.5873 25.7644 22.9891 27.7993 23.7999C29.1131 24.3222 30.9397 24.4046 32.2055 23.9923C34.1923 23.3464 35.5702 21.4086 35.5702 19.2647C35.5542 16.8047 33.6315 13.7674 31.1961 12.3931C29.4015 11.3624 27.2064 11.0738 25.5401 11.6235ZM28.8247 14.3859C30.459 15.0593 31.885 16.8596 32.2375 18.6462C32.4458 19.7182 32.2215 20.5565 31.5646 21.12C31.1961 21.4361 30.9717 21.5048 30.3469 21.5048C29.3214 21.5048 28.4081 21.1063 27.4147 20.1992C25.8926 18.8112 25.1075 16.6397 25.6202 15.2792C26.0688 14.1385 27.3666 13.7812 28.8247 14.3859Z" fill="white"/>
<path d="M75.0661 11.5273C73.8003 11.8709 72.9671 12.3519 71.7013 13.4514C69.5703 15.293 68.625 17.2995 68.7692 19.6771C68.8333 20.749 68.9294 21.0926 69.362 21.8347C70.2753 23.4152 71.8615 24.2673 73.9124 24.2673C75.9153 24.2673 77.5496 23.5801 79.264 22.0134C81.9077 19.5808 82.7409 16.1313 81.2989 13.6575C80.8182 12.8329 79.5204 11.8297 78.559 11.5548C77.6778 11.2937 75.9633 11.28 75.0661 11.5273ZM78.0303 14.4684C79.7928 15.9801 78.3988 19.7045 75.5468 21.1063C74.6174 21.5599 73.4638 21.6423 72.8229 21.285C71.7814 20.7078 71.6532 18.6326 72.5665 17.0521C73.9285 14.6745 76.7164 13.3552 78.0303 14.4684Z" fill="white"/>
<path d="M51.0322 16.9696C49.5421 17.2307 48.5968 17.7804 43.0209 21.6148C37.2527 25.5866 36.6919 26.0538 35.7466 27.6481C34.1443 30.3967 34.0962 34.1211 35.6665 36.801C37.5091 39.9482 40.3451 41.5974 43.9021 41.6111C45.7127 41.6111 47.1387 41.3088 49.2537 40.4704C51.8173 39.4672 52.4101 39.4672 55.118 40.5392C57.1689 41.3363 58.4186 41.6111 60.1651 41.6111C63.8663 41.6249 66.7024 39.9894 68.4969 36.8285C69.4743 35.0831 69.7627 33.8462 69.6505 31.7573C69.5063 29.0224 68.4648 26.9059 66.462 25.2705C65.052 24.1023 55.8069 17.8904 54.9577 17.5193C54.1406 17.162 52.5383 16.8047 51.9295 16.8459C51.7853 16.8597 51.3847 16.9146 51.0322 16.9696ZM53.708 20.0343C54.0284 20.1992 56.6081 21.9309 59.4281 23.8824C64.9238 27.6618 65.3404 28.0191 66.0454 29.682C66.5742 30.9464 66.6383 33.1453 66.1736 34.4509C65.5007 36.3475 64.1548 37.818 62.4243 38.4914C61.6712 38.78 61.2707 38.8487 60.2612 38.8487C58.9314 38.8487 57.8899 38.5876 55.5185 37.6806C52.9229 36.6773 51.0803 36.7323 48.1 37.9142C47.2508 38.244 46.2254 38.5876 45.8248 38.6838C44.6712 38.9449 42.9888 38.89 41.9313 38.5464C39.6241 37.8043 37.6533 34.9319 37.6533 32.2932C37.6533 30.6715 38.4704 28.6788 39.56 27.6481C40.1528 27.0708 49.9427 20.3092 50.6316 19.9931C51.6731 19.5121 52.7146 19.5258 53.708 20.0343Z" fill="white"/>
<path d="M1.44204 44.6209C0.336476 45.1019 0 45.7891 0 47.5894V49.0187L0.54477 49.486C0.945337 49.8158 1.23374 49.9532 1.60227 49.9532C1.97079 49.9532 2.27522 49.8158 2.65976 49.486C3.17249 49.0462 3.20453 48.9637 3.20453 48.0429V47.0672H7.53065H11.8568V54.7634V62.4595H7.53065H3.20453V61.5662C3.20453 60.1782 2.70783 59.5735 1.60227 59.5735C0.384544 59.5735 0 60.1507 0 61.9648C0 63.8064 0.352498 64.4248 1.68238 64.947C2.27522 65.1807 2.93215 65.2082 11.7767 65.2082C18.1857 65.2082 21.4383 65.1532 21.8709 65.057C22.7682 64.8371 23.6815 64.0263 23.8097 63.3116L23.9218 62.7344H25.5882C27.2545 62.7344 27.3026 62.7481 38.3102 65.2906C44.3667 66.6924 49.8625 67.8881 50.5034 67.9431C53.5798 68.2317 56.1274 67.4483 60.085 65.0158C61.0944 64.3836 65.7089 61.5662 70.3395 58.7489C74.97 55.9315 78.9917 53.389 79.2961 53.1279C79.6006 52.8531 80.0652 52.2346 80.3376 51.7399C81.2829 50.022 80.9304 48.0017 79.4243 46.5587C78.2386 45.4317 76.2038 44.8545 74.4252 45.1294C73.4318 45.2806 71.3008 46.1464 63.9945 49.376L60.2933 51.0115L59.8286 50.6816C59.5722 50.4892 58.9634 50.1731 58.4827 49.9807L57.6015 49.6097L52.3941 49.5409L47.1867 49.4722L45.9209 48.5239C43.4214 46.6549 40.6815 45.3905 38.1339 44.9232C36.74 44.6759 33.92 44.6759 32.3978 44.9507C31.7249 45.0607 30.1066 45.4592 28.8087 45.844C26.7578 46.4212 26.2611 46.5174 25.1716 46.5174C23.9218 46.5174 23.9058 46.5174 23.7936 46.1326C23.6014 45.4592 23.0726 44.8958 22.3676 44.6071C21.7107 44.3185 21.4704 44.3185 11.9209 44.3185H2.14704L1.44204 44.6209ZM20.6692 54.7634V62.4595H17.8653H15.0613V54.7634V47.0672H17.8653H20.6692V54.7634ZM38.7588 47.933C40.3611 48.414 42.1877 49.3898 43.8861 50.6541C46.1132 52.3308 45.5684 52.2071 51.6731 52.2896C56.4318 52.3583 57.0086 52.3858 57.4412 52.6057C58.2103 53.018 58.5468 53.499 58.6109 54.3511C58.675 55.1894 58.3385 55.7803 57.4733 56.3301C57.0246 56.6049 56.8163 56.6187 49.3979 56.6874L41.7871 56.7561L41.4025 57.1409C40.7136 57.8281 40.9699 58.8588 41.9313 59.2849C42.1716 59.3948 44.4949 59.436 49.4619 59.436C57.3932 59.436 57.8578 59.3948 59.3159 58.584C60.1651 58.1304 60.822 57.4845 61.3828 56.55C61.6552 56.069 61.7673 55.6429 61.8154 54.6671L61.8795 53.389L67.904 50.7503C71.2207 49.2936 74.249 48.0155 74.6496 47.9055C77.085 47.2733 78.7193 49.7746 76.8767 51.2863C76.2358 51.8086 57.1849 63.4353 55.839 64.1362C55.3102 64.4111 54.429 64.7684 53.8842 64.9333C53.003 65.2082 52.6665 65.2357 51.2405 65.1669C49.8946 65.112 49.0293 64.9608 46.4657 64.3423C44.7513 63.9163 39.8163 62.7756 35.4902 61.7861L27.6551 59.9858H25.7644H23.8738V54.6259V49.2661H25.4119C26.854 49.2661 27.1264 49.2111 29.3054 48.5789C32.5901 47.6032 33.3752 47.4795 35.6504 47.5344C37.2367 47.5619 37.7814 47.6306 38.7588 47.933Z" fill="white"/>
<path d="M0.753065 53.5402C0.400566 53.7189 0 54.3786 0 54.8183C0 55.0107 0.208295 55.3681 0.464657 55.6154C0.849201 55.9865 1.04147 56.069 1.60227 56.069C2.16306 56.069 2.35533 55.9865 2.73987 55.6154C2.99624 55.3681 3.20453 55.0107 3.20453 54.8183C3.20453 54.3648 2.80397 53.7051 2.41942 53.5265C2.01885 53.3478 1.12159 53.3616 0.753065 53.5402Z" fill="white"/>
</svg>
