<svg width="32" height="25" viewBox="0 0 32 25" fill="none" xmlns="http://www.w3.org/2000/svg">
<path d="M7.69443 0V25H0V0H7.69443Z" fill="white"/>
<path d="M24.8601 4.9435C27.1014 4.9435 28.846 5.70857 30.0937 7.2387C31.3646 8.76883 32 10.8404 32 13.4534V25H24.3402V14.4421C24.3402 13.5005 24.0861 12.7589 23.5777 12.2175C23.0925 11.6525 22.434 11.3701 21.6021 11.3701C20.7472 11.3701 20.0771 11.6525 19.5919 12.2175C19.1066 12.7589 18.864 13.5005 18.864 14.4421V25H11.1696V5.08475H18.864V8.12147C19.4648 7.17985 20.262 6.41478 21.2555 5.82627C22.2722 5.23776 23.4737 4.9435 24.8601 4.9435Z" fill="white"/>
</svg>
